# xmcd
#
# Track frame offsets:
#	150
#	16057
#	36097
#	49877
#	71755
#	86827
#	98937
#	112602
#	134277
#	146925
#	160927
#	176937
#	191515
#	206897
#	221007
#	239170
#	263735
#	278572
#	299695
#	310675
#
# Disc length: 4377 seconds
#
# Revision: 3
# Processed by: cddbd v1.5.2PL0 Copyright (c) Steve Scherf et al.
# Submitted via: audiograbber 1.83.01
#
DISCID=38111714
DTITLE=_Various artists - Mit RTL Radio in die 70er
DYEAR=1994
DGENRE=Oldies
TTITLE0=Mungo Jerry - In The Summertime
TTITLE1=T. Rex - Get It On
TTITLE2=Daniel Boone - Beatiful Sunday
TTITLE3=Fist Class - Beach Baby
TTITLE4=David Dundas - Jeans On
TTITLE5=Kincade - Dreams Are Ten A Penny
TTITLE6=Jim Croce  - Bad, Bad Lery Brown
TTITLE7=Uriah Heep - Lady In Black
TTITLE8=Hello - New York Groove
TTITLE9=Showaddywaddy - Under The Moon Of Love
TTITLE10=Bonnie Tyler - It´s A Heartache
TTITLE11=Garry Glitter - I Love, You Love, Me Love
TTITLE12=The Real Thing - You To Me Are Everything
TTITLE13=Tina Charles - I LOve To Love
TTITLE14=The Kinks - Lola
TTITLE15=Kevin Johnson - Rock´n Roll
TTITLE16=The Bellamy Brothers - Let Your Love Flow
TTITLE17=Gladys Night - Midnight Train To Georgia
TTITLE18=Melanie - Brand New Key
TTITLE19=Stories - Brother Louie
EXTD=
EXTT0=
EXTT1=
EXTT2=
EXTT3=
EXTT4=
EXTT5=
EXTT6=
EXTT7=
EXTT8=
EXTT9=
EXTT10=
EXTT11=
EXTT12=
EXTT13=
EXTT14=
EXTT15=
EXTT16=
EXTT17=
EXTT18=
EXTT19=
PLAYORDER=
